<svg width="80" height="14" viewBox="0 0 80 14" fill="none" xmlns="http://www.w3.org/2000/svg">
<path d="M65.66 6.85C66.2733 6.95 66.7433 7.18 67.07 7.54C67.3967 7.89333 67.56 8.33333 67.56 8.86C67.56 9.26667 67.4533 9.64333 67.24 9.99C67.0267 10.33 66.7 10.6033 66.26 10.81C65.8267 11.0167 65.2933 11.12 64.66 11.12C64.1667 11.12 63.68 11.0567 63.2 10.93C62.7267 10.7967 62.3233 10.61 61.99 10.37L62.62 9.13C62.8867 9.33 63.1933 9.48667 63.54 9.6C63.8933 9.70667 64.2533 9.76 64.62 9.76C65.0267 9.76 65.3467 9.68333 65.58 9.53C65.8133 9.37 65.93 9.14667 65.93 8.86C65.93 8.28667 65.4933 8 64.62 8H63.88V6.93L65.32 5.3H62.34V4H67.24V5.05L65.66 6.85ZM70.738 9.14C71.018 9.14 71.248 9.23 71.428 9.41C71.608 9.58333 71.698 9.81333 71.698 10.1C71.698 10.2333 71.6813 10.3667 71.648 10.5C71.6146 10.6333 71.5413 10.8333 71.428 11.1L70.858 12.54H69.868L70.308 10.95C70.1413 10.8833 70.008 10.7767 69.908 10.63C69.8146 10.4767 69.768 10.3 69.768 10.1C69.768 9.81333 69.858 9.58333 70.038 9.41C70.2246 9.23 70.458 9.14 70.738 9.14ZM76.3252 6.63C77.3118 6.63 78.0385 6.82667 78.5052 7.22C78.9785 7.61333 79.2152 8.14 79.2152 8.8C79.2152 9.22667 79.1085 9.61667 78.8952 9.97C78.6818 10.3167 78.3552 10.5967 77.9152 10.81C77.4818 11.0167 76.9452 11.12 76.3052 11.12C75.8118 11.12 75.3252 11.0567 74.8452 10.93C74.3718 10.7967 73.9685 10.61 73.6352 10.37L74.2752 9.13C74.5418 9.33 74.8485 9.48667 75.1952 9.6C75.5418 9.70667 75.8985 9.76 76.2652 9.76C76.6718 9.76 76.9918 9.68 77.2252 9.52C77.4585 9.36 77.5752 9.13667 77.5752 8.85C77.5752 8.55 77.4518 8.32333 77.2052 8.17C76.9652 8.01667 76.5452 7.94 75.9452 7.94H74.1552L74.5152 4H78.7852V5.3H75.8652L75.7552 6.63H76.3252Z" fill="black"/>
<path d="M4.99981 9.42157L2.69237 10.6347L3.13315 8.06522L1.26648 6.24566L3.84609 5.87105L4.99981 3.53333L6.15353 5.87105L8.73314 6.24566L6.86648 8.06522L7.30726 10.6347L4.99981 9.42157Z" fill="#FFC000" stroke="#FFC000" stroke-linecap="round" stroke-linejoin="round"/>
<path d="M16.9998 9.42157L14.6924 10.6347L15.1331 8.06522L13.2665 6.24566L15.8461 5.87105L16.9998 3.53333L18.1535 5.87105L20.7331 6.24566L18.8665 8.06522L19.3073 10.6347L16.9998 9.42157Z" fill="#FFC000" stroke="#FFC000" stroke-linecap="round" stroke-linejoin="round"/>
<path d="M28.9998 9.42157L26.6924 10.6347L27.1331 8.06522L25.2665 6.24566L27.8461 5.87105L28.9998 3.53333L30.1535 5.87105L32.7331 6.24566L30.8665 8.06522L31.3073 10.6347L28.9998 9.42157Z" fill="#FFC000" stroke="#FFC000" stroke-linecap="round" stroke-linejoin="round"/>
<path d="M52.9998 9.42157L50.6924 10.6347L51.1331 8.06522L49.2665 6.24566L51.8461 5.87105L52.9998 3.53333L54.1535 5.87105L56.7331 6.24566L54.8665 8.06522L55.3073 10.6347L52.9998 9.42157Z" stroke="#FFC000" stroke-linecap="round" stroke-linejoin="round"/>
<path d="M40.9998 9.42157L38.6924 10.6347L39.1331 8.06522L37.2665 6.24566L39.8461 5.87105L40.9998 3.53333L42.1535 5.87105L44.7331 6.24566L42.8665 8.06522L43.3073 10.6347L40.9998 9.42157Z" stroke="#FFC000" stroke-linecap="round" stroke-linejoin="round"/>
<path fill-rule="evenodd" clip-rule="evenodd" d="M41.2596 4.00034L41.2594 4L40.2522 6.04097L38 6.36803L39.6297 7.95661L39.2449 10.2L41.2594 9.14079L41.2596 9.14087V4.00034Z" fill="#FFC000"/>
</svg>
