<svg width="16" height="16" viewBox="0 0 16 16" fill="none" xmlns="http://www.w3.org/2000/svg">
<g clip-path="url(#clip0_538_357)">
<path d="M3.66674 3.33337H12.3334C12.4294 3.36705 12.5164 3.42225 12.5878 3.49475C12.6592 3.56725 12.7131 3.65513 12.7452 3.75166C12.7774 3.84818 12.7871 3.95079 12.7735 4.05162C12.7598 4.15245 12.7233 4.24883 12.6667 4.33337L9.33341 8.00004V12.6667L6.66674 10.6667V8.00004L3.3334 4.33337C3.2768 4.24883 3.2403 4.15245 3.22669 4.05162C3.21309 3.95079 3.22274 3.84818 3.25491 3.75166C3.28709 3.65513 3.34093 3.56725 3.41231 3.49475C3.4837 3.42225 3.57073 3.36705 3.66674 3.33337Z" stroke="#0D0D0D" stroke-linecap="round" stroke-linejoin="round"/>
</g>
<defs>
<clipPath id="clip0_538_357">
<rect width="16" height="16" fill="white"/>
</clipPath>
</defs>
</svg>
